<svg xmlns="http://www.w3.org/2000/svg" xmlns:xlink="http://www.w3.org/1999/xlink" version="1.1" id="Layer_1" x="0px" y="0px" width="100px" height="100px" viewBox="0 0 100 100" enable-background="new 0 0 100 100" xml:space="preserve">
<g>
	<path d="M94.866,28.099l-7.371,4.322l-0.045,3.168l-9.729,11.214c-0.828,0.957-0.727,2.403,0.229,3.23   c0.956,0.83,2.403,0.729,3.231-0.228l6.166-7.109L87.2,53.102c0,1.219,0.832,2.244,1.957,2.545   c-0.021,0.127-0.035,0.261-0.035,0.396v22.129l-3.104,0.737c-1.357,0-2.457,1.1-2.457,2.457c0,1.356,1.1,1.14,2.457,1.14h5.313   c0.082,0.01,0.167,0.012,0.253,0.012c1.358,0,2.456-1.1,2.456-2.455V56.041c0-0.118-0.012-0.23-0.025-0.348   c1.232-0.221,2.172-1.295,2.172-2.594L97.5,30.735C97.5,29.278,96.318,28.099,94.866,28.099z"/>
	<circle cx="91.579" cy="22.233" r="5.082"/>
</g>
<path d="M69.12,53.012h11.396c0.275,0,0.502-0.225,0.502-0.503c0-0.276-0.227-0.503-0.502-0.503H69.12  c-0.276,0-0.501,0.227-0.501,0.503C68.616,52.787,68.842,53.012,69.12,53.012z"/>
<path d="M68.229,52.595c0.215-0.173,0.248-0.489,0.074-0.706l-7.164-8.862c-0.174-0.216-0.492-0.25-0.705-0.074  c-0.219,0.174-0.252,0.49-0.076,0.707l7.166,8.859C67.695,52.736,68.012,52.771,68.229,52.595z"/>
<path d="M80.195,53.691H68.631c-1.455,0-2.635,1.181-2.635,2.639v23.55c0,1.456,1.179,2.638,2.635,2.638h11.564  c1.457,0,2.637-1.181,2.637-2.638V56.33C82.833,54.874,81.652,53.691,80.195,53.691z"/>
<g>
	<polygon fill="none" points="25.692,58.164 25.692,58.714 27.278,58.164 27.278,57.678 25.692,57.678  "/>
	<circle cx="26.485" cy="22.161" r="5.07"/>
	<path d="M33.21,65.964c0.754,0,1.363-0.444,1.363-0.996v-9.823c0-0.552-0.609-0.994-1.363-0.994h-2.655   c0.188-0.362,0.298-0.771,0.298-1.207l-0.148-10.376l-0.101-7.087l-0.045-3.159l-7.35-4.311c-1.449,0-2.627,1.176-2.627,2.629   l1.314,22.302c0,0.438,0.114,0.846,0.302,1.207H19.76c-0.752,0-1.364,0.444-1.364,0.994v9.825c0,0.552,0.611,0.996,1.364,0.996   h4.274V79.83c0,1.354,1.097,2.451,2.451,2.451c0.086,0,0.17-0.004,0.252-0.014h5.296c1.355,0,2.453,0.219,2.453-1.138   c0-1.354-1.097-2.452-2.453-2.452l-3.098-0.734V65.964H33.21z"/>
</g>
<g>
	<path d="M37.389,30.586l1.318,22.366c0,1.299,0.938,2.375,2.172,2.594c-0.016,0.113-0.027,0.229-0.027,0.347v24.02   c0,1.359,1.1,2.459,2.458,2.459c0.085,0,0.17-0.003,0.251-0.014h5.312c1.357,0,2.458,0.22,2.458-1.141   c0-1.355-1.101-2.459-2.458-2.459l-3.105-0.736V55.893c0-0.135-0.013-0.268-0.033-0.396c1.125-0.3,1.956-1.325,1.956-2.546   l-0.148-10.405l6.168,7.109c0.827,0.954,2.273,1.059,3.229,0.229c0.957-0.83,1.06-2.275,0.229-3.232L47.438,35.44l-0.045-3.167   l-7.37-4.323C38.569,27.95,37.389,29.13,37.389,30.586z"/>
	<circle cx="43.31" cy="22.085" r="5.084"/>
</g>
<g>
	<path d="M12.55,35.44l-0.045-3.167l-7.37-4.323c-1.455,0-2.636,1.181-2.636,2.636l1.318,22.366c0,1.299,0.938,2.375,2.172,2.594   c-0.016,0.113-0.027,0.229-0.027,0.347v24.02c0,1.359,1.1,2.459,2.458,2.459c0.085,0,0.17-0.003,0.251-0.014h5.312   c1.357,0,2.458,0.22,2.458-1.141c0-1.355-1.101-2.459-2.458-2.459l-3.106-0.736V55.893c0-0.135-0.013-0.268-0.033-0.396   c1.125-0.3,1.955-1.325,1.955-2.546l-0.148-10.405"/>
	<circle cx="8.421" cy="22.085" r="5.084"/>
</g>
<g>
	<path fill="#000000" d="M81.339,10.797c0.834-0.334,2.602-0.258,2.936,0.575l0,0c0.333,0.833-0.894,2.108-1.728,2.442L60.639,20.92   c0,0-1.611,0.258-3.875-1.047"/>
	<polyline fill="#000000" points="73.791,13.176 62.229,7.666 60.905,9.008 65.622,16.22  "/>
	<polyline fill="#000000" points="59.457,18.565 55.519,16.681 55.008,17.098 56.673,19.593  "/>
</g>
</svg>