<svg xmlns="http://www.w3.org/2000/svg" xmlns:xlink="http://www.w3.org/1999/xlink" version="1.1" id="Layer_1" x="0px" y="0px" width="100px" height="100px" viewBox="0 0 100 100" enable-background="new 0 0 100 100" xml:space="preserve">
<g>
	<path d="M94.815,49.745h-0.002c-5.571-5.106-11.141-10.218-16.755-15.282c-0.005,1.439-0.011,5.681-0.014,10.606H49.356v9.86   h28.688c0.001,4.929,0.008,9.171,0.021,10.607c5.53-4.943,10.962-10.002,16.462-14.982C94.743,50.317,95.282,50.011,94.815,49.745z   "/>
	<path d="M39.501,74.645c-13.593,0-24.644-11.061-24.644-24.646c0-13.587,11.051-24.644,24.644-24.644   c8.017,0,15.081,3.908,19.587,9.857h11.533c-5.555-11.638-17.396-19.715-31.12-19.715C20.479,15.498,5,30.973,5,49.999   c0,19.023,15.479,34.503,34.501,34.503c13.725,0,25.565-8.086,31.12-19.715H59.088C54.582,70.736,47.518,74.645,39.501,74.645z"/>
</g>
</svg>