<svg xmlns="http://www.w3.org/2000/svg" xmlns:xlink="http://www.w3.org/1999/xlink" xml:space="preserve" width="100px" height="100px" shape-rendering="geometricPrecision" text-rendering="geometricPrecision" image-rendering="optimizeQuality" fill-rule="evenodd" clip-rule="evenodd" viewBox="0 0 100 100" version="1.1" enable-background="new 0 0 100 100">
 <g id="Layer_x0020_1">
  <metadata id="CorelCorpID_0Corel-Layer"/>
  <path fill="black" d="M56.6508 27.6191c0,0 11.9989,0.174805 16.6419,0.0708667 1.09607,0.270475 3.66735,1.84608 3.69097,2.97522 0.0224411,1.07599 -2.38585,2.61144 -3.71696,3.09333 -4.24373,0 -16.6241,0.206695 -16.6241,0.206695l-13.9253 19.2439 -3.07916 0 4.78823 -19.3206c0,0 -6.7158,-0.0259845 -9.07802,-0.04252 -1.86616,2.45435 -6.08509,7.9099 -6.08509,7.9099l-2.76616 -0.00118111 3.04491 -10.9513 -3.04491 -10.93 2.90553 0 5.84768 7.81896 9.17606 0.07441 -4.68665 -19.2427 2.9764 -0.0602367 13.9348 19.1553z"/>
  <path fill="black" d="M43.3492 72.3797c0,0 -11.9989,-0.174805 -16.6419,-0.0708667 -1.09607,-0.270475 -3.66735,-1.84608 -3.69097,-2.97522 -0.0224411,-1.07599 2.38585,-2.61144 3.71696,-3.09333 4.24373,0 16.6241,-0.206695 16.6241,-0.206695l13.9253 -19.2439 3.07916 0 -4.78823 19.3206c0,0 6.7158,0.0259845 9.07802,0.04252 1.86616,-2.45435 6.08509,-7.9099 6.08509,-7.9099l2.76616 0.00118111 -3.04491 10.9513 3.04491 10.93 -2.90553 0 -5.84768 -7.81896 -9.17606 -0.07441 4.68665 19.2427 -2.9764 0.0602367 -13.9348 -19.1553z"/>
 </g>
</svg>